<svg width="386" height="363" viewBox="0 0 386 363" fill="none" xmlns="http://www.w3.org/2000/svg">
<path d="M314.881 183.406C314.881 110.308 255.585 51.0511 182.44 51.0511C109.296 51.0511 50 110.308 50 183.406C50 256.503 109.296 315.76 182.44 315.76C255.585 315.76 314.881 256.503 314.881 183.406Z" fill="#7B4AE2" fill-opacity="0.2"/>
<g filter="url(#filter0_d_1_38)">
<circle cx="317.18" cy="194.397" r="18.3945" fill="#090E16"/>
</g>
<g clip-path="url(#clip0_1_38)">
<path fill-rule="evenodd" clip-rule="evenodd" d="M324.94 185.2H309.42C308.626 185.2 307.983 185.843 307.983 186.637V202.157C307.983 202.951 308.626 203.594 309.42 203.594H324.94C325.734 203.594 326.377 202.951 326.377 202.157V186.637C326.377 185.843 325.734 185.2 324.94 185.2ZM318.798 201.589V199.604C319.158 199.906 319.549 200.133 319.971 200.283C320.393 200.434 320.819 200.51 321.25 200.51C321.502 200.51 321.723 200.487 321.911 200.442C322.099 200.396 322.256 200.333 322.383 200.253C322.509 200.172 322.603 200.077 322.665 199.967C322.727 199.858 322.758 199.739 322.758 199.611C322.758 199.437 322.708 199.282 322.609 199.145C322.51 199.009 322.374 198.883 322.203 198.767C322.031 198.651 321.827 198.54 321.591 198.432C321.355 198.325 321.101 198.215 320.828 198.104C320.133 197.814 319.614 197.461 319.273 197.043C318.932 196.625 318.761 196.121 318.761 195.53C318.761 195.067 318.854 194.669 319.04 194.336C319.226 194.003 319.48 193.729 319.801 193.514C320.121 193.299 320.493 193.141 320.915 193.04C321.337 192.939 321.784 192.888 322.255 192.888C322.719 192.888 323.129 192.916 323.487 192.972C323.845 193.027 324.175 193.113 324.477 193.229V195.083C324.328 194.98 324.166 194.889 323.99 194.81C323.814 194.732 323.633 194.667 323.447 194.615C323.261 194.563 323.076 194.525 322.891 194.5C322.707 194.476 322.533 194.463 322.367 194.463C322.139 194.463 321.933 194.485 321.746 194.528C321.56 194.572 321.403 194.633 321.275 194.711C321.146 194.79 321.047 194.884 320.977 194.993C320.906 195.103 320.871 195.226 320.871 195.362C320.871 195.511 320.91 195.645 320.989 195.762C321.068 195.88 321.179 195.992 321.324 196.097C321.469 196.203 321.645 196.306 321.852 196.407C322.059 196.509 322.293 196.613 322.553 196.721C322.909 196.869 323.229 197.028 323.512 197.195C323.796 197.362 324.039 197.552 324.241 197.763C324.444 197.973 324.599 198.214 324.707 198.485C324.815 198.756 324.868 199.071 324.868 199.431C324.868 199.927 324.774 200.343 324.586 200.68C324.398 201.017 324.142 201.29 323.819 201.499C323.497 201.708 323.121 201.858 322.693 201.949C322.265 202.04 321.813 202.085 321.337 202.085C320.848 202.085 320.384 202.044 319.943 201.961C319.503 201.878 319.121 201.754 318.798 201.589ZM318.042 194.666H315.49V201.941H313.468V194.666H310.929V193.032H318.042V194.666Z" fill="#7B4AE2" fill-opacity="0.5"/>
</g>
<g filter="url(#filter1_d_1_38)">
<circle cx="68.3945" cy="147.491" r="18.3945" fill="#090E16"/>
</g>
<path d="M75.2762 144.256C75.0617 144.182 74.8395 144.112 74.6106 144.046C74.6483 143.892 74.6828 143.741 74.7135 143.592C75.2173 141.146 74.8879 139.176 73.7631 138.528C72.6845 137.906 70.9206 138.554 69.1392 140.105C68.9679 140.254 68.7961 140.411 68.6244 140.577C68.51 140.467 68.3957 140.362 68.2818 140.261C66.4148 138.603 64.5434 137.904 63.4197 138.555C62.3422 139.178 62.0231 141.031 62.4766 143.348C62.5204 143.572 62.5716 143.801 62.6295 144.033C62.3646 144.108 62.1089 144.188 61.8643 144.274C59.6754 145.037 58.2775 146.233 58.2775 147.473C58.2775 148.755 59.7782 150.04 62.058 150.819C62.238 150.881 62.4246 150.939 62.617 150.994C62.5546 151.245 62.5003 151.492 62.4547 151.732C62.0223 154.009 62.3599 155.818 63.4346 156.438C64.5446 157.078 66.4075 156.42 68.2215 154.834C68.3649 154.709 68.5088 154.576 68.6529 154.436C68.8398 154.616 69.0263 154.787 69.2119 154.946C70.9689 156.458 72.7043 157.069 73.778 156.447C74.8869 155.805 75.2473 153.863 74.7794 151.499C74.7437 151.319 74.7021 151.134 74.6554 150.947C74.7862 150.908 74.9146 150.868 75.0399 150.827C77.41 150.041 78.9521 148.772 78.9521 147.473C78.9521 146.228 77.5091 145.024 75.2762 144.256ZM74.7621 149.988C74.6491 150.026 74.5331 150.062 74.4149 150.097C74.1532 149.269 73.8001 148.388 73.3679 147.478C73.7803 146.589 74.1198 145.72 74.3741 144.897C74.5856 144.958 74.7909 145.023 74.9887 145.091C76.9019 145.749 78.0689 146.723 78.0689 147.473C78.0689 148.273 76.8085 149.31 74.7621 149.988ZM73.913 151.671C74.1199 152.716 74.1494 153.661 74.0124 154.399C73.8892 155.063 73.6416 155.506 73.3354 155.683C72.6839 156.06 71.2905 155.57 69.7879 154.277C69.6156 154.129 69.4421 153.97 69.268 153.803C69.8506 153.166 70.4328 152.425 71.001 151.602C72.0005 151.514 72.9448 151.369 73.8011 151.171C73.8432 151.341 73.8807 151.508 73.913 151.671ZM65.326 155.618C64.6894 155.843 64.1824 155.849 63.8759 155.672C63.2238 155.296 62.9527 153.844 63.3225 151.897C63.3648 151.674 63.4152 151.444 63.4733 151.21C64.3203 151.398 65.2576 151.532 66.2595 151.614C66.8315 152.418 67.4306 153.158 68.0343 153.806C67.9024 153.934 67.771 154.055 67.6403 154.169C66.8382 154.87 66.0344 155.368 65.326 155.618ZM62.3437 149.983C61.3356 149.639 60.503 149.191 59.9324 148.702C59.4196 148.263 59.1607 147.827 59.1607 147.473C59.1607 146.721 60.2831 145.76 62.155 145.108C62.3821 145.029 62.6199 144.954 62.8667 144.884C63.1254 145.725 63.4647 146.605 63.8743 147.495C63.4594 148.398 63.1152 149.292 62.854 150.143C62.6781 150.093 62.5077 150.039 62.3437 149.983ZM63.3434 143.179C62.9548 141.193 63.2129 139.695 63.8622 139.319C64.5539 138.919 66.0833 139.49 67.6954 140.921C67.7984 141.012 67.9018 141.108 68.0056 141.207C67.4049 141.852 66.8113 142.587 66.2443 143.387C65.272 143.477 64.3413 143.622 63.4855 143.816C63.4317 143.599 63.384 143.386 63.3434 143.179ZM72.2614 145.381C72.0569 145.027 71.8469 144.682 71.6327 144.347C72.2924 144.43 72.9244 144.541 73.5179 144.676C73.3397 145.247 73.1176 145.844 72.8562 146.457C72.6687 146.101 72.4703 145.742 72.2614 145.381ZM68.6247 141.838C69.0321 142.28 69.44 142.773 69.8413 143.307C69.4369 143.288 69.0276 143.278 68.6148 143.278C68.206 143.278 67.7996 143.288 67.3977 143.307C67.7994 142.777 68.2109 142.285 68.6247 141.838ZM64.9646 145.387C64.7603 145.741 64.5656 146.098 64.381 146.456C64.1238 145.846 63.9038 145.246 63.724 144.667C64.3139 144.535 64.9429 144.427 65.5984 144.345C65.3813 144.684 65.1695 145.031 64.9646 145.387V145.387ZM65.6173 150.665C64.9401 150.589 64.3016 150.487 63.7119 150.358C63.8945 149.769 64.1193 149.156 64.382 148.533C64.5671 148.891 64.7625 149.248 64.9681 149.603H64.9681C65.1776 149.965 65.3946 150.319 65.6173 150.665ZM68.6491 153.171C68.2305 152.719 67.813 152.219 67.4052 151.682C67.801 151.698 68.2046 151.705 68.6148 151.705C69.0362 151.705 69.4528 151.696 69.8628 151.678C69.4602 152.225 69.0537 152.725 68.6491 153.171ZM72.8646 148.501C73.141 149.131 73.3739 149.741 73.5589 150.32C72.9594 150.457 72.3122 150.567 71.6303 150.649C71.8449 150.309 72.0568 149.958 72.265 149.597C72.4756 149.232 72.6756 148.866 72.8646 148.501ZM71.4999 149.156C71.1768 149.716 70.845 150.251 70.5081 150.756C69.8946 150.8 69.2608 150.822 68.6148 150.822C67.9714 150.822 67.3456 150.802 66.743 150.763C66.3925 150.252 66.0535 149.715 65.7324 149.16H65.7325C65.4122 148.607 65.1174 148.049 64.8503 147.495C65.1174 146.939 65.4114 146.38 65.7298 145.828L65.7297 145.828C66.049 145.274 66.385 144.74 66.7322 144.232C67.3471 144.186 67.9776 144.161 68.6148 144.161H68.6148C69.2549 144.161 69.8862 144.186 70.5009 144.233C70.8428 144.737 71.1765 145.27 71.497 145.823C71.8212 146.383 72.119 146.938 72.3883 147.482C72.1198 148.036 71.8227 148.596 71.4999 149.156ZM73.3219 139.293C74.0142 139.692 74.2834 141.302 73.8485 143.414C73.8207 143.548 73.7895 143.686 73.7555 143.825C72.8978 143.627 71.9664 143.48 70.9912 143.388C70.4231 142.579 69.8344 141.844 69.2435 141.207C69.4024 141.054 69.561 140.908 69.719 140.771C71.2453 139.442 72.6719 138.918 73.3219 139.293ZM68.6148 145.627C69.6344 145.627 70.461 146.454 70.461 147.473C70.461 148.493 69.6344 149.32 68.6148 149.32C67.5952 149.32 66.7686 148.493 66.7686 147.473C66.7686 146.454 67.5952 145.627 68.6148 145.627Z" fill="#7B4AE2" fill-opacity="0.5"/>
<g filter="url(#filter2_d_1_38)">
<circle cx="68.3945" cy="265.216" r="18.3945" fill="#090E16"/>
</g>
<g clip-path="url(#clip1_1_38)">
<path fill-rule="evenodd" clip-rule="evenodd" d="M65.3527 256.018C63.6604 256.018 62.287 257.392 62.287 259.084C62.287 260.776 63.6604 262.15 65.3527 262.15C63.6604 262.15 62.287 263.523 62.287 265.216C62.287 266.908 63.6604 268.281 65.3527 268.281C63.6604 268.281 62.287 269.655 62.287 271.347C62.287 273.039 63.6604 274.413 65.3527 274.413C67.045 274.413 68.4185 273.039 68.4185 271.347L68.4185 265.216C68.4185 266.908 69.7919 268.281 71.4842 268.281C73.1765 268.281 74.55 266.908 74.55 265.216C74.55 263.523 73.1765 262.15 71.4842 262.15C73.1765 262.15 74.55 260.776 74.55 259.084C74.55 257.392 73.1765 256.018 71.4842 256.018H65.3527ZM71.4842 262.15H68.4185L68.4185 265.216C68.4185 263.523 69.7919 262.15 71.4842 262.15Z" fill="#7B4AE2" fill-opacity="0.5"/>
</g>
<g filter="url(#filter3_f_1_38)">
<circle cx="183.36" cy="181.061" r="131.061" fill="#7B4AE2" fill-opacity="0.2"/>
</g>
<g filter="url(#filter4_i_1_38)">
<path fill-rule="evenodd" clip-rule="evenodd" d="M159.224 232.077C178.104 242.14 199.275 241.022 215.863 232.076V254.122L216.051 254.117V267.061H159.224V232.077Z" fill="#BB7D52"/>
<path fill-rule="evenodd" clip-rule="evenodd" d="M159.223 250.446C178.103 260.51 199.275 259.392 215.863 250.446V264.505L228.619 264.187L228.778 264.193C228.778 298.08 147.764 303.152 147.764 264.142L148.08 264.128L159.223 264.184V250.446V250.446Z" fill="#D08B5B"/>
<path fill-rule="evenodd" clip-rule="evenodd" d="M126.057 111.177C171.113 82.4888 228.754 92.6905 248.228 111.608C253.859 125.156 254.257 138.225 252.6 152.253C256.404 149.523 260.927 150.148 264.491 152.69C265.935 164.33 269.802 187.357 252.471 188.356C246.505 262.635 137.179 271.881 122.401 188.599C105.224 188.006 109.856 164.735 110.929 153.559C115.05 150.424 119.756 152.002 122.677 153.404L126.057 111.177V111.177Z" fill="#D08B5B"/>
<path fill-rule="evenodd" clip-rule="evenodd" d="M119.365 142.634C119.601 143.284 118.832 143.934 116.525 145.117C111.75 147.501 111.332 147.997 111.32 151.733V151.914C111.32 156.938 112.089 158.237 115.401 158.711C118.773 159.184 120.903 159.952 121.495 160.898C121.731 161.311 121.968 163.203 121.968 165.153C121.968 169.35 123.269 175.261 124.867 178.334C129.363 187.082 141.075 191.515 155.272 189.86C162.253 188.973 166.335 187.614 170.771 184.658C177.397 180.226 180.473 174.551 180.946 165.626C181.301 160.188 181.301 160.188 183.076 159.597C185.383 158.77 191.121 158.77 193.488 159.597C195.321 160.247 195.321 160.247 195.321 164.444C195.321 169.291 196.563 175.083 198.219 178.335C202.715 187.082 214.428 191.515 228.567 189.86C235.606 188.973 239.688 187.614 244.125 184.659C250.75 180.226 253.826 174.374 254.418 165.213C254.832 159.184 254.536 159.479 261.043 158.652C264.356 158.238 265.125 156.938 265.125 151.855C265.125 147.835 264.474 147.067 258.973 144.703L255.66 143.284L250.513 141.689L246.727 140.861C244.657 140.448 241.995 140.092 240.871 140.033C239.688 140.033 236.73 138.969 233.773 137.492C228.862 135.068 228.626 135.009 222.829 135.009C216.203 135.009 211.53 136.369 207.743 139.324C206.62 140.211 204.253 141.334 202.597 141.747C200.881 142.162 197.687 143.284 195.498 144.23C189.76 146.654 186.803 146.535 179.467 143.58C176.273 142.28 173.256 141.215 172.842 141.215C172.427 141.215 171.067 140.388 169.825 139.384C165.921 136.31 161.543 135.009 154.799 135.009C149.061 135.009 148.706 135.128 143.619 137.551C140.188 139.206 137.526 140.033 135.928 140.033C134.627 140.092 131.787 140.448 129.658 140.92L119.365 142.634V142.634ZM166.689 150.259C173.788 152.564 175.976 155.696 176.035 163.617C176.095 167.813 175.859 169.173 174.735 171.478C170.83 179.457 159.709 183.95 146.517 182.944C136.402 182.117 131.196 179.28 128.416 173.015C126.641 168.936 126.404 159.184 128.06 156.169C129.599 153.332 132.557 151.382 137.407 150.081C141.193 149.077 143.264 148.958 152.728 149.077C160.892 149.254 164.441 149.549 166.689 150.259V150.259ZM240.042 150.259C247.141 152.564 249.33 155.696 249.389 163.617C249.448 167.813 249.211 169.173 248.088 171.478C244.183 179.457 233.062 183.95 219.87 182.944C209.755 182.117 204.549 179.28 201.768 173.015C199.994 168.936 199.758 159.184 201.414 156.169C202.952 153.332 205.909 151.382 210.76 150.081C214.546 149.077 216.616 148.958 226.081 149.077C234.245 149.254 237.794 149.549 240.042 150.259V150.259Z" fill="#A66F49"/>
<path fill-rule="evenodd" clip-rule="evenodd" d="M172.368 53.4018L168.641 55.8253L166.748 53.9929C163.79 51.0968 162.371 51.6288 160.123 56.4164C158.762 59.3716 157.047 59.7265 154.089 57.7757C152.906 56.9484 151.427 56.239 150.836 56.239C149.534 56.239 148.292 58.2485 147.759 60.9083C147.346 63.0953 145.926 65.1049 144.743 65.1049C144.329 65.1049 142.79 64.5729 141.312 63.9227C139.063 62.9179 138.354 62.8587 137.111 63.3907C135.692 64.041 135.573 64.3955 135.573 68.2966C135.573 71.1339 135.159 73.3208 134.39 74.9759C133.266 77.4582 133.207 77.5174 130.427 77.5174C125.813 77.5174 123.624 79.8223 125.872 82.3642C127.055 83.6052 126.286 84.9057 123.979 85.4376C119.72 86.5015 118.477 89.2205 120.784 92.1165C122.382 94.1852 122.323 94.4809 119.779 95.6631C117.117 96.9633 116.703 98.4412 118.418 100.273C119.72 101.692 119.72 101.751 119.01 109.553C118.3 117.119 118.537 138.22 119.365 140.407C119.601 141.057 118.832 141.707 116.525 142.89C111.674 145.313 111.32 145.786 111.32 149.687C111.32 154.711 112.089 156.011 115.402 156.484C118.773 156.957 120.903 157.725 121.495 158.671C121.731 159.085 121.968 160.976 121.968 162.927C121.968 167.123 123.269 173.034 124.866 176.107C129.362 184.855 141.075 189.288 155.273 187.633C162.253 186.746 166.335 185.387 170.771 182.432C177.397 177.999 180.473 172.324 180.946 163.399C181.301 157.962 181.301 157.962 183.076 157.371C185.383 156.543 191.121 156.543 193.487 157.371C195.321 158.021 195.321 158.021 195.321 162.218C195.321 167.064 196.563 172.857 198.22 176.108C202.716 184.856 214.428 189.288 228.567 187.634C235.606 186.747 239.688 185.388 244.125 182.432C250.75 177.999 253.826 172.148 254.418 162.986C254.832 156.957 254.536 157.253 261.043 156.425C264.356 156.011 265.125 154.711 265.125 149.628C265.125 145.609 264.474 144.84 258.973 142.476L255.66 141.057V135.147C255.601 125.04 254.181 117.888 251.696 115.583C250.868 114.814 249.034 113.632 247.556 112.923C245.249 111.8 244.775 111.741 244.066 112.509C243.356 113.218 243.533 113.869 245.308 117.415C247.496 121.789 249.448 129.177 250.099 135.561L250.513 139.462L246.727 138.634C244.657 138.221 241.995 137.866 240.871 137.807C239.688 137.807 236.73 136.743 233.772 135.265C228.862 132.842 228.626 132.783 222.829 132.783C216.203 132.783 211.529 134.142 207.744 137.097C206.62 137.984 204.253 139.107 202.597 139.521C200.882 139.935 197.687 141.058 195.498 142.003C189.76 144.427 186.803 144.309 179.467 141.353C176.273 140.053 173.256 138.989 172.842 138.989C172.428 138.989 171.067 138.161 169.825 137.157C165.921 134.083 161.543 132.783 154.799 132.783C149.061 132.783 148.706 132.901 143.619 135.324C140.188 136.979 137.526 137.807 135.928 137.807C134.627 137.866 131.788 138.221 129.658 138.693C123.624 139.994 124.097 140.762 124.57 130.832C124.926 122.321 126.049 115.11 127.351 112.627C128.83 109.849 140.543 103.879 152.137 99.9786C166.512 95.191 182.662 93.3585 200.882 94.5999C216.499 95.6047 220.64 96.9048 237.913 106.185C243.947 109.436 249.567 112.036 250.868 112.214C252.998 112.509 253.175 112.391 253.826 110.617C255.246 106.539 254.122 96.2546 251.756 91.5852C249.981 88.1572 249.863 86.8567 250.868 83.3105C251.578 80.8278 251.578 80.2958 250.691 78.9956C249.863 77.7543 249.271 77.518 246.905 77.518C245.367 77.5772 243.001 77.8134 241.64 78.05C239.215 78.5228 239.155 78.5228 239.451 76.9861C240.634 71.1937 239.215 69.8932 233.476 71.3708C231.643 71.8436 229.927 72.1393 229.809 71.9619C229.631 71.7848 229.809 70.0115 230.223 68.0611C230.932 64.8693 230.874 64.3373 230.045 63.4505C229.158 62.6232 228.626 62.6232 225.194 63.2734C219.693 64.3965 217.622 63.8645 215.611 60.7907C213.541 57.7764 211.648 56.7125 209.696 57.4807C208.631 57.8944 207.507 57.7173 205.377 56.7716C203.129 55.826 201.828 55.5894 199.817 55.8848C197.746 56.2397 196.622 56.0031 194.67 54.9983C192.659 53.9935 191.535 53.8161 189.109 54.1115C186.507 54.4072 185.56 54.1706 182.543 52.693C180.65 51.7474 178.402 50.9789 177.574 50.9197C176.746 50.9197 174.439 52.0428 172.369 53.4024L172.368 53.4018V53.4018ZM166.689 148.032C173.788 150.337 175.977 153.47 176.036 161.39C176.095 165.586 175.858 166.946 174.735 169.251C170.83 177.23 159.709 181.723 146.517 180.718C136.402 179.89 131.196 177.053 128.416 170.788C126.641 166.709 126.404 156.957 128.061 153.942C129.599 151.105 132.556 149.155 137.407 147.854C141.193 146.85 143.264 146.731 152.728 146.85C160.892 147.027 164.441 147.322 166.689 148.032V148.032ZM240.042 148.032C247.141 150.337 249.33 153.47 249.389 161.39C249.448 165.586 249.211 166.946 248.088 169.251C244.183 177.23 233.062 181.723 219.87 180.718C209.755 179.89 204.549 177.053 201.769 170.788C199.994 166.709 199.757 156.957 201.414 153.942C202.952 151.105 205.909 149.155 210.76 147.854C214.546 146.85 216.617 146.731 226.082 146.85C234.245 147.027 237.794 147.322 240.042 148.032V148.032Z" fill="#2C1B18"/>
<path fill-rule="evenodd" clip-rule="evenodd" d="M147.641 155.184C144.506 156.661 140.897 160.385 140.897 162.158C140.897 163.518 141.844 163.518 143.678 162.04C148.469 158.257 158.644 158.257 163.85 161.981C164.855 162.631 165.92 163.222 166.275 163.222C167.517 163.222 166.926 161.094 165.033 158.848C162.548 155.775 158.112 153.765 153.911 153.765C151.723 153.765 149.652 154.238 147.641 155.183V155.184V155.184Z" fill="#533824"/>
<path fill-rule="evenodd" clip-rule="evenodd" d="M216.262 155.184C213.127 156.661 209.518 160.385 209.518 162.158C209.518 163.518 210.464 163.518 212.298 162.04C217.09 158.257 227.265 158.257 232.471 161.981C233.476 162.631 234.541 163.222 234.896 163.222C236.138 163.222 235.547 161.094 233.654 158.848C231.169 155.775 226.733 153.765 222.532 153.765C220.344 153.765 218.273 154.238 216.262 155.183L216.262 155.184V155.184Z" fill="#533824"/>
<path fill-rule="evenodd" clip-rule="evenodd" d="M174.439 183.437C175.09 185.978 176.982 187.988 180.295 189.584C182.957 190.884 184.318 191.18 188.222 191.18C192.126 191.18 193.487 190.884 196.149 189.584C199.462 187.988 201.354 185.979 202.005 183.437L202.301 182.137H188.222H174.143L174.439 183.437V183.437Z" fill="#AF754C"/>
<path fill-rule="evenodd" clip-rule="evenodd" d="M119.365 140.407C119.601 141.057 118.832 141.707 116.525 142.89C111.75 145.274 111.332 145.771 111.32 149.506V149.687C111.32 154.711 112.089 156.011 115.401 156.484C118.773 156.957 120.903 157.725 121.495 158.671C121.731 159.085 121.968 160.976 121.968 162.926C121.968 167.123 123.269 173.034 124.867 176.107C129.363 184.855 141.075 189.288 155.272 187.633C162.253 186.746 166.335 185.387 170.771 182.432C177.397 177.999 180.473 172.325 180.946 163.4C181.301 157.962 181.301 157.962 183.076 157.37C185.383 156.543 191.121 156.543 193.488 157.37C195.321 158.021 195.321 158.021 195.321 162.218C195.321 167.064 196.563 172.857 198.219 176.108C202.715 184.855 214.428 189.288 228.567 187.633C235.606 186.747 239.688 185.387 244.125 182.432C250.75 178 253.826 172.148 254.418 162.986C254.832 156.957 254.536 157.253 261.043 156.425C264.356 156.011 265.125 154.711 265.125 149.628C265.125 145.609 264.474 144.841 258.973 142.476L255.66 141.057L250.513 139.462L246.727 138.634C244.657 138.221 241.995 137.866 240.871 137.807C239.688 137.807 236.73 136.743 233.773 135.265C228.862 132.842 228.626 132.783 222.829 132.783C216.203 132.783 211.53 134.142 207.743 137.098C206.62 137.984 204.253 139.107 202.597 139.521C200.881 139.935 197.687 141.058 195.498 142.003C189.76 144.427 186.803 144.309 179.467 141.353C176.273 140.053 173.256 138.989 172.842 138.989C172.427 138.989 171.067 138.162 169.825 137.157C165.921 134.083 161.543 132.783 154.799 132.783C149.061 132.783 148.706 132.901 143.619 135.325C140.188 136.98 137.526 137.807 135.928 137.807C134.627 137.866 131.787 138.221 129.658 138.693L119.365 140.407V140.407ZM166.689 148.032C173.788 150.337 175.976 153.47 176.035 161.39C176.095 165.587 175.859 166.946 174.735 169.251C170.83 177.23 159.709 181.723 146.517 180.717C136.402 179.89 131.196 177.053 128.416 170.788C126.641 166.709 126.404 156.957 128.06 153.942C129.599 151.105 132.557 149.155 137.407 147.855C141.193 146.85 143.264 146.732 152.728 146.85C160.892 147.027 164.441 147.323 166.689 148.032V148.032ZM240.042 148.032C247.141 150.337 249.33 153.47 249.389 161.39C249.448 165.587 249.211 166.946 248.088 169.251C244.183 177.23 233.062 181.723 219.87 180.717C209.755 179.89 204.549 177.053 201.768 170.788C199.994 166.709 199.758 156.957 201.414 153.942C202.952 151.105 205.909 149.155 210.76 147.855C214.546 146.85 216.616 146.732 226.081 146.85C234.245 147.027 237.794 147.323 240.042 148.032V148.032Z" fill="#090E16"/>
<path fill-rule="evenodd" clip-rule="evenodd" d="M171.717 207.198C172.487 212.103 176.213 217.128 180.828 219.492C184.199 221.265 190.411 221.62 193.96 220.26C199.284 218.192 203.899 212.635 204.727 207.198H171.717V207.198Z" fill="#3E291B"/>
<path fill-rule="evenodd" clip-rule="evenodd" d="M171.212 194.877C170.311 195.204 168.1 196.268 166.298 197.291C164.496 198.272 162.448 199.337 161.752 199.623C160.319 200.196 156.101 200.359 154.75 199.909C153.972 199.663 153.808 199.745 153.808 200.523C153.808 201.791 156.47 204.164 159.377 205.556C163.145 207.356 168.059 206.988 174.202 204.41C176.573 203.712 180.002 201.841 182.76 200.891C188.835 198.745 191.939 199.977 197.42 202.324L202.211 204.41C208.354 206.988 213.268 207.356 217.036 205.556C219.984 204.164 222.727 201.669 222.523 200.605C222.441 200.196 222.072 199.95 221.745 200.032C221.417 200.114 219.902 200.155 218.346 200.155C215.889 200.114 215.152 199.909 212.203 198.395C204.218 194.222 205.365 194.549 199.468 194.549C194.759 194.549 193.816 194.713 191.196 195.654L188.206 196.718L185.258 195.654C181.654 194.385 173.996 193.976 171.212 194.877V194.877Z" fill="#2C1B18" fill-opacity="0.301961"/>
<path d="M209.093 321.217L212.892 318.131C213.772 317.416 215.066 317.549 215.782 318.428C216.498 319.308 216.364 320.601 215.484 321.316L213.645 322.809L226.993 334.046C227.873 334.761 228.007 336.054 227.291 336.933C226.885 337.432 226.293 337.691 225.696 337.691C225.241 337.691 224.782 337.541 224.401 337.231L209.093 324.402C208.614 324.012 208.335 323.427 208.335 322.809C208.335 322.191 208.614 321.606 209.093 321.217V321.217Z" fill="#7B4AE2"/>
<path d="M225.962 302.36C227.052 302.369 227.93 303.26 227.921 304.349L227.751 335.733C227.742 336.823 226.851 337.7 225.76 337.691C225.484 337.689 225.222 337.63 224.984 337.526C224.282 337.219 223.795 336.516 223.801 335.702L223.971 304.318C223.98 303.228 224.871 302.352 225.962 302.36V302.36Z" fill="#7B4AE2"/>
<path d="M234.631 323.949L236.034 322.809L231.037 318.749C230.157 318.034 230.023 316.742 230.739 315.862C231.455 314.983 232.749 314.849 233.629 315.564L240.586 321.217C241.066 321.606 241.344 322.191 241.344 322.809C241.344 323.427 241.066 324.012 240.586 324.402L237.223 327.134C236.842 327.443 236.384 327.594 235.928 327.594C235.331 327.594 234.739 327.335 234.333 326.836C233.617 325.957 233.751 324.664 234.631 323.949V323.949Z" fill="#C83267"/>
<path fill-rule="evenodd" clip-rule="evenodd" d="M147.404 264.163C129.953 265.861 114.1 272.36 100.908 283.192C89.5564 292.474 86.3895 299.851 78.0787 310.357C95.0119 327.91 117.782 342.783 142.613 350.998C159.176 356.443 170.475 358.2 188.222 358.2C205.969 358.2 217.267 356.443 233.831 350.998C258.882 342.993 279.983 329.876 299.004 311.048C285.976 294.246 280.614 283.234 259.623 272.887C250.808 268.496 240.456 265.334 232.529 264.514L228.796 264.178L228.619 264.174L228.211 266.974C226.437 280.324 209.696 290.161 188.814 290.161C167.932 290.161 151.487 280.441 149.356 266.915C148.943 264.222 148.765 263.987 147.405 264.163H147.404V264.163Z" fill="#090E16"/>
<path fill-rule="evenodd" clip-rule="evenodd" d="M158.229 240.371L157.982 240.294C157.307 240.082 160.621 238.57 161.795 238.008C165.246 236.36 169.747 236.697 175.374 239.058C177.546 239.698 180.688 241.411 183.214 242.281C188.779 244.248 191.623 243.119 196.644 240.97L201.033 239.058C206.66 236.697 211.161 236.36 214.612 238.008C215.769 238.555 216.912 239.264 217.782 240.022L218.044 240.25C207.972 247.926 175.687 251.743 158.229 240.371V240.371Z" fill="#2C1B18" fill-opacity="0.501961"/>
<path d="M222.843 312.171L224.821 310.564C225.279 310.192 225.952 310.262 226.325 310.719C226.698 311.177 226.628 311.85 226.17 312.223L225.213 313L232.161 318.851C232.619 319.223 232.688 319.896 232.316 320.354C232.104 320.614 231.796 320.748 231.486 320.748C231.249 320.748 231.01 320.67 230.812 320.509L222.843 313.829C222.594 313.626 222.448 313.322 222.448 313C222.448 312.679 222.594 312.374 222.843 312.171V312.171Z" fill="white"/>
<path d="M231.624 302.354C232.192 302.359 232.648 302.822 232.644 303.39L232.555 319.729C232.551 320.297 232.087 320.753 231.519 320.748C231.375 320.747 231.239 320.717 231.115 320.662C230.75 320.502 230.496 320.137 230.499 319.713L230.588 303.373C230.592 302.806 231.056 302.349 231.624 302.354V302.354Z" fill="white"/>
<path d="M236.137 313.594L236.867 313L234.266 310.887C233.808 310.514 233.738 309.841 234.111 309.384C234.483 308.925 235.157 308.856 235.615 309.228L239.236 312.171C239.486 312.374 239.631 312.679 239.631 313C239.631 313.322 239.486 313.627 239.236 313.829L237.486 315.252C237.288 315.413 237.049 315.491 236.812 315.491C236.501 315.491 236.193 315.357 235.982 315.097C235.609 314.639 235.679 313.966 236.137 313.594Z" fill="#7B4AE2"/>
</g>
<defs>
<filter id="filter0_d_1_38" x="248.786" y="130.002" width="136.789" height="136.789" filterUnits="userSpaceOnUse" color-interpolation-filters="sRGB">
<feFlood flood-opacity="0" result="BackgroundImageFix"/>
<feColorMatrix in="SourceAlpha" type="matrix" values="0 0 0 0 0 0 0 0 0 0 0 0 0 0 0 0 0 0 127 0" result="hardAlpha"/>
<feOffset dy="4"/>
<feGaussianBlur stdDeviation="25"/>
<feComposite in2="hardAlpha" operator="out"/>
<feColorMatrix type="matrix" values="0 0 0 0 0 0 0 0 0 0 0 0 0 0 0 0 0 0 0.5 0"/>
<feBlend mode="normal" in2="BackgroundImageFix" result="effect1_dropShadow_1_38"/>
<feBlend mode="normal" in="SourceGraphic" in2="effect1_dropShadow_1_38" result="shape"/>
</filter>
<filter id="filter1_d_1_38" x="0" y="83.0963" width="136.789" height="136.789" filterUnits="userSpaceOnUse" color-interpolation-filters="sRGB">
<feFlood flood-opacity="0" result="BackgroundImageFix"/>
<feColorMatrix in="SourceAlpha" type="matrix" values="0 0 0 0 0 0 0 0 0 0 0 0 0 0 0 0 0 0 127 0" result="hardAlpha"/>
<feOffset dy="4"/>
<feGaussianBlur stdDeviation="25"/>
<feComposite in2="hardAlpha" operator="out"/>
<feColorMatrix type="matrix" values="0 0 0 0 0 0 0 0 0 0 0 0 0 0 0 0 0 0 0.5 0"/>
<feBlend mode="normal" in2="BackgroundImageFix" result="effect1_dropShadow_1_38"/>
<feBlend mode="normal" in="SourceGraphic" in2="effect1_dropShadow_1_38" result="shape"/>
</filter>
<filter id="filter2_d_1_38" x="0" y="200.821" width="136.789" height="136.789" filterUnits="userSpaceOnUse" color-interpolation-filters="sRGB">
<feFlood flood-opacity="0" result="BackgroundImageFix"/>
<feColorMatrix in="SourceAlpha" type="matrix" values="0 0 0 0 0 0 0 0 0 0 0 0 0 0 0 0 0 0 127 0" result="hardAlpha"/>
<feOffset dy="4"/>
<feGaussianBlur stdDeviation="25"/>
<feComposite in2="hardAlpha" operator="out"/>
<feColorMatrix type="matrix" values="0 0 0 0 0 0 0 0 0 0 0 0 0 0 0 0 0 0 0.5 0"/>
<feBlend mode="normal" in2="BackgroundImageFix" result="effect1_dropShadow_1_38"/>
<feBlend mode="normal" in="SourceGraphic" in2="effect1_dropShadow_1_38" result="shape"/>
</filter>
<filter id="filter3_f_1_38" x="2.29932" y="0" width="362.122" height="362.122" filterUnits="userSpaceOnUse" color-interpolation-filters="sRGB">
<feFlood flood-opacity="0" result="BackgroundImageFix"/>
<feBlend mode="normal" in="SourceGraphic" in2="BackgroundImageFix" result="shape"/>
<feGaussianBlur stdDeviation="25" result="effect1_foregroundBlur_1_38"/>
</filter>
<filter id="filter4_i_1_38" x="78.0787" y="50.9197" width="220.926" height="311.28" filterUnits="userSpaceOnUse" color-interpolation-filters="sRGB">
<feFlood flood-opacity="0" result="BackgroundImageFix"/>
<feBlend mode="normal" in="SourceGraphic" in2="BackgroundImageFix" result="shape"/>
<feColorMatrix in="SourceAlpha" type="matrix" values="0 0 0 0 0 0 0 0 0 0 0 0 0 0 0 0 0 0 127 0" result="hardAlpha"/>
<feOffset dy="4"/>
<feGaussianBlur stdDeviation="2"/>
<feComposite in2="hardAlpha" operator="arithmetic" k2="-1" k3="1"/>
<feColorMatrix type="matrix" values="0 0 0 0 0 0 0 0 0 0 0 0 0 0 0 0 0 0 0.25 0"/>
<feBlend mode="normal" in2="shape" result="effect1_innerShadow_1_38"/>
</filter>
<clipPath id="clip0_1_38">
<rect width="18.3945" height="18.3945" fill="white" transform="translate(307.983 185.2)"/>
</clipPath>
<clipPath id="clip1_1_38">
<rect width="18.3945" height="18.3945" fill="white" transform="translate(59.1973 256.018)"/>
</clipPath>
</defs>
</svg>
