<svg width="46" height="45" viewBox="0 0 46 45" fill="none" xmlns="http://www.w3.org/2000/svg">
<g clip-path="url(#clip0_1_510)">
<path fill-rule="evenodd" clip-rule="evenodd" d="M15.3351 0.0638428C11.201 0.0638428 7.84575 3.41908 7.84575 7.5532C7.84575 11.6873 11.201 15.0426 15.3351 15.0426C11.201 15.0426 7.84575 18.3978 7.84575 22.5319C7.84575 26.6661 11.201 30.0213 15.3351 30.0213C11.201 30.0213 7.84575 33.3765 7.84575 37.5107C7.84575 41.6448 11.201 45 15.3351 45C19.4692 45 22.8245 41.6448 22.8245 37.5107L22.8245 22.5319C22.8245 26.6661 26.1797 30.0213 30.3138 30.0213C34.448 30.0213 37.8032 26.6661 37.8032 22.5319C37.8032 18.3978 34.448 15.0426 30.3138 15.0426C34.448 15.0426 37.8032 11.6873 37.8032 7.5532C37.8032 3.41908 34.448 0.0638428 30.3138 0.0638428H15.3351ZM30.3138 15.0426H22.8245L22.8245 22.5319C22.8245 18.3978 26.1797 15.0426 30.3138 15.0426Z" fill="#7B4AE2" fill-opacity="0.5"/>
</g>
<defs>
<clipPath id="clip0_1_510">
<rect width="44.9362" height="44.9362" fill="white" transform="translate(0.297882 0.0638428)"/>
</clipPath>
</defs>
</svg>
