<svg width="21" height="21" viewBox="0 0 21 21" fill="none" xmlns="http://www.w3.org/2000/svg">
<path d="M18.7156 1.36572L1.24056 6.28759C1.0918 6.32826 0.959202 6.4138 0.860815 6.53255C0.762429 6.65131 0.703042 6.79751 0.690744 6.95123C0.678446 7.10496 0.713835 7.25873 0.79209 7.39162C0.870346 7.52451 0.987663 7.63004 1.12806 7.69384L9.15306 11.4907C9.31026 11.5635 9.43651 11.6898 9.50931 11.847L13.3062 19.872C13.37 20.0124 13.4755 20.1297 13.6084 20.2079C13.7413 20.2862 13.8951 20.3216 14.0488 20.3093C14.2025 20.297 14.3487 20.2376 14.4675 20.1392C14.5862 20.0408 14.6718 19.9082 14.7124 19.7595L19.6343 2.28447C19.6716 2.15695 19.6739 2.02174 19.641 1.89302C19.6081 1.7643 19.5411 1.64681 19.4472 1.55286C19.3532 1.45891 19.2357 1.39197 19.107 1.35904C18.9783 1.32611 18.8431 1.32842 18.7156 1.36572V1.36572Z" stroke="#7B4AE2" stroke-opacity="0.5" stroke-linecap="round" stroke-linejoin="round"/>
</svg>
