<svg width="46" height="45" viewBox="0 0 46 45" fill="none" xmlns="http://www.w3.org/2000/svg">
<path fill-rule="evenodd" clip-rule="evenodd" d="M44.195 20.5301L24.5752 0.911407C23.4461 -0.218679 21.6135 -0.218679 20.4829 0.911407L16.4089 4.98553L21.577 10.1537C22.778 9.74796 24.1551 10.0201 25.1126 10.9776C26.0745 11.9411 26.3447 13.33 25.9291 14.535L30.9099 19.5159C32.1149 19.1007 33.5053 19.3695 34.4677 20.3334C35.8127 21.678 35.8127 23.8573 34.4677 25.2028C33.1222 26.5484 30.9429 26.5484 29.5969 25.2028C28.5851 24.1901 28.3352 22.704 28.8474 21.4576L24.2024 16.8125L24.202 29.0363C24.5298 29.199 24.8395 29.4155 25.1126 29.6877C26.4576 31.0322 26.4576 33.2115 25.1126 34.5581C23.7671 35.9031 21.5868 35.9031 20.2433 34.5581C18.8982 33.2115 18.8982 31.0322 20.2433 29.6877C20.5756 29.3558 20.9602 29.1049 21.3704 28.9362V16.5985C20.9602 16.4308 20.5761 16.1814 20.2433 15.8471C19.2242 14.8294 18.9791 13.334 19.5012 12.0826L14.4071 6.98734L0.954302 20.4394C-0.176255 21.5705 -0.176255 23.4032 0.954302 24.5332L20.5741 44.1524C21.7037 45.2825 23.5358 45.2825 24.6669 44.1524L44.195 24.6245C45.3251 23.4939 45.3251 21.6602 44.195 20.5301Z" fill="#7B4AE2" fill-opacity="0.5"/>
</svg>
