<svg width="45" height="40" viewBox="0 0 45 40" fill="none" xmlns="http://www.w3.org/2000/svg">
<path d="M36.9465 12.9522C36.4804 12.7923 35.9974 12.6411 35.5 12.4981C35.5818 12.1657 35.6568 11.8376 35.7235 11.5152C36.8185 6.21988 36.1025 1.95398 33.6578 0.549464C31.3136 -0.797283 27.4798 0.606916 23.6078 3.96386C23.2355 4.28666 22.8621 4.62843 22.4889 4.98661C22.2402 4.74963 21.9919 4.52062 21.7443 4.30156C17.6864 0.712099 13.6189 -0.80055 11.1766 0.608032C8.83459 1.95868 8.14103 5.96904 9.1267 10.9874C9.22188 11.4721 9.33314 11.9671 9.45896 12.4704C8.8833 12.6332 8.32756 12.8068 7.79581 12.9914C3.03834 14.6438 0 17.2335 0 19.9198C0 22.6942 3.26166 25.4769 8.21694 27.1642C8.60799 27.2974 9.01376 27.4233 9.43192 27.5428C9.29619 28.0871 9.17813 28.6205 9.07903 29.1408C8.13919 34.0721 8.87314 37.9877 11.2089 39.3298C13.6215 40.7158 17.6705 39.2911 21.6133 35.8577C21.9249 35.5863 22.2376 35.2985 22.5509 34.9968C22.957 35.3864 23.3625 35.7551 23.7658 36.1009C27.5848 39.3749 31.3567 40.6969 33.6902 39.3511C36.1005 37.9611 36.8838 33.7547 35.8668 28.6371C35.7892 28.2462 35.6988 27.8469 35.5973 27.4406C35.8816 27.3568 36.1608 27.2704 36.433 27.1805C41.5844 25.4801 44.9362 22.7312 44.9362 19.9198C44.9362 17.2238 41.7998 14.6166 36.9465 12.9522ZM35.8292 25.3652C35.5835 25.4462 35.3314 25.5245 35.0745 25.6005C34.5058 23.8069 33.7382 21.8996 32.799 19.9291C33.6953 18.0055 34.4332 16.1227 34.9859 14.3407C35.4456 14.4732 35.8918 14.613 36.3217 14.7605C40.48 16.1866 43.0165 18.2951 43.0165 19.9198C43.0165 21.6504 40.2772 23.8969 35.8292 25.3652ZM33.9836 29.0085C34.4333 31.2715 34.4975 33.3174 34.1997 34.9169C33.932 36.3541 33.3938 37.3123 32.7283 37.696C31.3122 38.5126 28.2838 37.4512 25.0177 34.6512C24.6433 34.3302 24.2662 33.9875 23.8878 33.6248C25.154 32.2452 26.4195 30.6414 27.6545 28.8602C29.8269 28.6682 31.8792 28.3542 33.7404 27.9256C33.8321 28.294 33.9135 28.6553 33.9836 29.0085ZM15.3198 37.5549C13.9362 38.0417 12.8342 38.0556 12.1681 37.673C10.7506 36.8585 10.1614 33.7147 10.9652 29.4975C11.0572 29.0145 11.1668 28.5184 11.2931 28.0113C13.1339 28.4168 15.1712 28.7086 17.3488 28.8844C18.5921 30.6274 19.8941 32.2294 21.2062 33.6322C20.9196 33.9079 20.634 34.1704 20.3501 34.4177C18.6066 35.936 16.8595 37.0131 15.3198 37.5549ZM8.83779 25.3546C6.64666 24.6085 4.83714 23.6388 3.5968 22.5807C2.48228 21.6298 1.91958 20.6858 1.91958 19.9198C1.91958 18.2897 4.35906 16.2105 8.4277 14.7973C8.92137 14.6258 9.43816 14.4642 9.97447 14.3124C10.5368 16.1346 11.2744 18.0398 12.1646 19.9663C11.2629 21.9215 10.5148 23.857 9.94695 25.7006C9.56462 25.5911 9.19421 25.4759 8.83779 25.3546ZM11.0106 10.6201C10.1661 6.32053 10.727 3.07705 12.1383 2.26316C13.6417 1.39611 16.9659 2.63233 20.4696 5.73166C20.6936 5.92975 20.9184 6.13709 21.1439 6.3516C19.8383 7.74823 18.5482 9.33825 17.3159 11.0709C15.2025 11.2661 13.1795 11.5795 11.3195 11.9993C11.2026 11.5307 11.099 11.0703 11.0106 10.6201ZM30.394 15.3884C29.9494 14.6232 29.4929 13.8762 29.0276 13.1496C30.4613 13.3301 31.835 13.5698 33.125 13.8631C32.7377 15.0997 32.255 16.3926 31.6868 17.7179C31.2792 16.947 30.848 16.1697 30.394 15.3884ZM22.4895 7.71835C23.375 8.67401 24.2617 9.74098 25.1339 10.8986C24.255 10.8573 23.3652 10.8358 22.4681 10.8358C21.5794 10.8358 20.6962 10.8568 19.8228 10.8974C20.6958 9.75054 21.5902 8.685 22.4895 7.71835ZM14.5344 15.4016C14.0902 16.1689 13.6671 16.942 13.2659 17.7165C12.7069 16.3957 12.2286 15.097 11.838 13.8429C13.1201 13.5571 14.4873 13.3234 15.9119 13.1462C15.44 13.8795 14.9797 14.6321 14.5344 15.4014V15.4016ZM15.9529 26.8298C14.481 26.6662 13.0933 26.4445 11.8115 26.1666C12.2084 24.8901 12.6972 23.5636 13.268 22.2144C13.6703 22.9884 14.0951 23.7618 14.542 24.5307H14.5421C14.9973 25.3141 15.4688 26.0815 15.9529 26.8298ZM22.5426 32.256C21.6328 31.2781 20.7253 30.1963 19.839 29.0327C20.6994 29.0663 21.5766 29.0835 22.4681 29.0835C23.384 29.0835 24.2894 29.0629 25.1806 29.0234C24.3056 30.208 23.4221 31.2915 22.5426 32.256ZM31.7051 22.1456C32.3057 23.5094 32.812 24.829 33.214 26.0837C31.9111 26.3798 30.5044 26.6183 29.0223 26.7955C29.4888 26.0591 29.9492 25.2992 30.4017 24.5176C30.8595 23.7268 31.2941 22.9348 31.7051 22.1456ZM28.7389 23.5622C28.0365 24.7755 27.3153 25.9338 26.5832 27.0272C25.2498 27.1221 23.8722 27.1711 22.4681 27.1711C21.0697 27.1711 19.7095 27.1278 18.3996 27.0431C17.638 25.9354 16.9012 24.7737 16.2032 23.5726H16.2034C15.5072 22.3748 14.8666 21.1668 14.286 19.9657C14.8664 18.7617 15.5054 17.5524 16.1975 16.3568L16.1974 16.357C16.8913 15.1582 17.6217 14.0021 18.3763 12.9013C19.7127 12.8007 21.083 12.7482 22.468 12.7482H22.4681C23.8593 12.7482 25.2314 12.8011 26.5674 12.9026C27.3105 13.9953 28.0359 15.1476 28.7326 16.3467C29.4372 17.5591 30.0844 18.7604 30.6697 19.9385C30.0862 21.1369 29.4404 22.3502 28.7389 23.5622ZM32.6989 2.20626C34.2037 3.07076 34.7889 6.55727 33.8434 11.1292C33.7831 11.4209 33.7152 11.718 33.6415 12.0192C31.7771 11.5906 29.7527 11.2717 27.6332 11.0736C26.3984 9.32192 25.1189 7.72943 23.8346 6.35073C24.1799 6.0198 24.5247 5.70425 24.8681 5.40647C28.1855 2.53026 31.2862 1.39468 32.6989 2.20626ZM22.4681 15.9223C24.6842 15.9223 26.4807 17.712 26.4807 19.9198C26.4807 22.1275 24.6842 23.9173 22.4681 23.9173C20.252 23.9173 18.4554 22.1275 18.4554 19.9198C18.4554 17.712 20.252 15.9223 22.4681 15.9223Z" fill="#7B4AE2" fill-opacity="0.5"/>
</svg>
